<svg width="31" height="28" viewBox="0 0 31 28" fill="none" xmlns="http://www.w3.org/2000/svg">
<g clip-path="url(#clip0_22_3024)">
<path d="M19.2801 13.2998L7.45557 11.1998V26.7167C7.45557 27.4253 8.02638 27.9998 8.73053 27.9998H29.1341C29.8382 27.9998 30.4091 27.4253 30.4091 26.7167V20.9998L19.2801 13.2998Z" fill="#185C37"/>
<path d="M19.2801 0H8.73053C8.02638 0 7.45557 0.57446 7.45557 1.2831V7L19.2801 14L25.5401 16.1L30.4091 14V7L19.2801 0Z" fill="#21A366"/>
<path d="M7.45557 7H19.2801V14H7.45557V7Z" fill="#107C41"/>
<path opacity="0.1" d="M15.9185 5.60049H7.45557V23.1005H15.9185C16.6216 23.0982 17.1911 22.5251 17.1934 21.8174V6.88359C17.1911 6.17591 16.6216 5.60279 15.9185 5.60049Z" fill="black"/>
<path opacity="0.2" d="M15.2229 6.30025H7.45557V23.8002H15.2229C15.9261 23.7979 16.4956 23.2248 16.4978 22.5171V7.58334C16.4956 6.87567 15.9261 6.30255 15.2229 6.30025Z" fill="black"/>
<path opacity="0.2" d="M15.2229 6.30025H7.45557V22.4002H15.2229C15.9261 22.3979 16.4956 21.8248 16.4978 21.1172V7.58334C16.4956 6.87567 15.9261 6.30255 15.2229 6.30025Z" fill="black"/>
<path opacity="0.2" d="M14.5273 6.30025H7.45557V22.4002H14.5273C15.2305 22.3979 15.8 21.8248 15.8023 21.1172V7.58334C15.8 6.87567 15.2305 6.30255 14.5273 6.30025Z" fill="black"/>
<path d="M1.77496 6.30025H14.5274C15.2315 6.30025 15.8023 6.87471 15.8023 7.58334V20.4171C15.8023 21.1258 15.2315 21.7002 14.5274 21.7002H1.77496C1.07082 21.7002 0.5 21.1258 0.5 20.4171V7.58334C0.5 6.87471 1.07082 6.30025 1.77496 6.30025Z" fill="url(#paint0_linear_22_3024)"/>
<path d="M4.44873 18.1706L7.13081 13.9881L4.6734 9.8287H6.65018L7.99122 12.4887C8.11503 12.7414 8.19988 12.929 8.2458 13.0529H8.26318C8.35129 12.8513 8.44403 12.6555 8.54141 12.4656L9.97495 9.8301H11.7897L9.26965 13.965L11.8537 18.1706H9.9228L8.37378 15.2509C8.30081 15.1267 8.2389 14.9962 8.18877 14.861H8.16582C8.12044 14.9934 8.06024 15.1203 7.98636 15.239L6.39144 18.1706H4.44873Z" fill="white"/>
<path d="M29.134 0H19.28V7H30.409V1.2831C30.409 0.57446 29.8382 0 29.134 0Z" fill="#33C481"/>
<path d="M19.28 14H30.409V21H19.28V14Z" fill="#107C41"/>
</g>
<defs>
<linearGradient id="paint0_linear_22_3024" x1="3.15832" y1="5.29766" x2="13.2396" y2="22.6473" gradientUnits="userSpaceOnUse">
<stop stop-color="#18884F"/>
<stop offset="0.5" stop-color="#117E43"/>
<stop offset="1" stop-color="#0B6631"/>
</linearGradient>
<clipPath id="clip0_22_3024">
<rect width="29.9091" height="28" fill="white" transform="translate(0.5)"/>
</clipPath>
</defs>
</svg>
